<?xml version="1.0" encoding="utf-8"?>
<!-- Generator: Adobe Illustrator 26.3.1, SVG Export Plug-In . SVG Version: 6.00 Build 0)  -->
<svg version="1.1" id="圖層_1" xmlns="http://www.w3.org/2000/svg" xmlns:xlink="http://www.w3.org/1999/xlink" x="0px" y="0px"
	 viewBox="0 0 160 80" style="enable-background:new 0 0 160 80;" xml:space="preserve">
<style type="text/css">
	.st0{fill:#929292;}
	.st1{fill:#515151;}
</style>
<path class="st0" d="M40,2.8C18.5,2.8,1,17,1,34.5c0,15.6,13.9,28.7,32.6,31.2c1.3,0.3,3,0.8,3.4,1.9c0.4,1,0.3,2.5,0.1,3.5
	c0,0-0.5,2.8-0.6,3.3c-0.2,1-0.8,3.9,3.4,2.1c4.2-1.8,22.5-13.2,30.6-22.6c5.7-6.2,8.4-12.5,8.4-19.5C79,17,61.5,2.8,40,2.8z
	 M26.2,43.8c0,0.4-0.3,0.8-0.8,0.8H14.5c-0.2,0-0.4-0.1-0.5-0.2l0,0l0,0c-0.1-0.1-0.2-0.3-0.2-0.5v-17c0-0.4,0.3-0.8,0.8-0.8h2.7
	c0.4,0,0.8,0.3,0.8,0.8v13.5h7.4c0.4,0,0.8,0.3,0.7,0.7V43.8z M32.8,43.8c0,0.4-0.3,0.8-0.8,0.8h-2.7c-0.4,0-0.8-0.3-0.8-0.8v-17
	c0-0.4,0.3-0.8,0.8-0.8h2.7c0.4,0,0.8,0.3,0.8,0.8V43.8z M51.7,43.8c0,0.4-0.3,0.8-0.8,0.8h-2.7c-0.1,0-0.1,0-0.2,0h0c0,0,0,0-0.1,0
	c0,0,0,0,0,0c0,0,0,0,0,0c0,0,0,0,0,0c0,0,0,0,0,0c0,0,0,0-0.1,0c0,0,0,0,0,0c-0.1-0.1-0.1-0.1-0.2-0.2l-7.8-10.5v10.1
	c0,0.4-0.3,0.8-0.8,0.8h-2.7c-0.4,0-0.8-0.3-0.8-0.8v-17c0-0.4,0.3-0.8,0.8-0.8H39c0,0,0,0,0,0c0,0,0,0,0,0c0,0,0,0,0,0c0,0,0,0,0,0
	c0,0,0,0,0,0c0,0,0,0,0,0c0,0,0,0,0,0c0,0,0,0,0,0c0,0,0,0,0,0c0,0,0,0,0,0c0,0,0,0,0,0c0,0,0,0,0,0c0,0,0,0,0,0c0,0,0,0,0,0
	c0,0,0,0,0,0c0,0,0,0,0,0c0,0,0,0,0,0.1c0,0,0,0,0,0c0,0,0,0.1,0.1,0.1l7.8,10.5V26.8c0-0.4,0.3-0.8,0.8-0.8h2.7
	c0.4,0,0.8,0.3,0.8,0.8V43.8z M66.8,29.6c0,0.4-0.3,0.8-0.8,0.8v0h-7.4v2.9H66c0.4,0,0.8,0.3,0.8,0.8v2.7c0,0.4-0.3,0.8-0.8,0.8
	h-7.4v2.9H66c0.4,0,0.8,0.3,0.8,0.8v2.7c0,0.4-0.3,0.8-0.8,0.8H55.1c-0.2,0-0.4-0.1-0.5-0.2l0,0l0,0c-0.1-0.1-0.2-0.3-0.2-0.5v-17
	c0-0.2,0.1-0.4,0.2-0.5c0,0,0,0,0,0l0,0c0.1-0.1,0.3-0.2,0.5-0.2H66c0.4,0,0.8,0.3,0.8,0.8V29.6z"/>
<path class="st1" d="M120,2.8C98.5,2.8,81,17,81,34.5c0,15.6,13.9,28.7,32.6,31.2c1.3,0.3,3,0.8,3.4,1.9c0.4,1,0.3,2.5,0.1,3.5
	c0,0-0.5,2.8-0.6,3.3c-0.2,1-0.8,3.9,3.4,2.1c4.2-1.8,22.5-13.2,30.6-22.6c5.7-6.2,8.4-12.5,8.4-19.5C159,17,141.5,2.8,120,2.8z
	 M106.2,43.8c0,0.4-0.3,0.8-0.8,0.8H94.5c-0.2,0-0.4-0.1-0.5-0.2l0,0l0,0c-0.1-0.1-0.2-0.3-0.2-0.5v-17c0-0.4,0.3-0.8,0.8-0.8h2.7
	c0.4,0,0.8,0.3,0.8,0.8v13.5h7.4c0.4,0,0.8,0.3,0.7,0.7V43.8z M112.8,43.8c0,0.4-0.3,0.8-0.8,0.8h-2.7c-0.4,0-0.8-0.3-0.8-0.8v-17
	c0-0.4,0.3-0.8,0.8-0.8h2.7c0.4,0,0.8,0.3,0.8,0.8V43.8z M131.7,43.8c0,0.4-0.3,0.8-0.8,0.8h-2.7c-0.1,0-0.1,0-0.2,0h0
	c0,0,0,0-0.1,0c0,0,0,0,0,0c0,0,0,0,0,0c0,0,0,0,0,0c0,0,0,0,0,0c0,0,0,0-0.1,0c0,0,0,0,0,0c-0.1-0.1-0.1-0.1-0.2-0.2l-7.8-10.5
	v10.1c0,0.4-0.3,0.8-0.8,0.8h-2.7c-0.4,0-0.8-0.3-0.8-0.8v-17c0-0.4,0.3-0.8,0.8-0.8h2.7c0,0,0,0,0,0c0,0,0,0,0,0c0,0,0,0,0,0
	c0,0,0,0,0,0c0,0,0,0,0,0c0,0,0,0,0,0c0,0,0,0,0,0c0,0,0,0,0,0c0,0,0,0,0,0c0,0,0,0,0,0c0,0,0,0,0,0c0,0,0,0,0,0c0,0,0,0,0,0
	c0,0,0,0,0,0c0,0,0,0,0,0c0,0,0,0,0,0c0,0,0,0,0,0.1c0,0,0,0,0,0c0,0,0,0.1,0.1,0.1l7.8,10.5V26.8c0-0.4,0.3-0.8,0.8-0.8h2.7
	c0.4,0,0.8,0.3,0.8,0.8V43.8z M146.8,29.6c0,0.4-0.3,0.8-0.8,0.8v0h-7.4v2.9h7.4c0.4,0,0.8,0.3,0.8,0.8v2.7c0,0.4-0.3,0.8-0.8,0.8
	h-7.4v2.9h7.4c0.4,0,0.8,0.3,0.8,0.8v2.7c0,0.4-0.3,0.8-0.8,0.8h-10.9c-0.2,0-0.4-0.1-0.5-0.2l0,0l0,0c-0.1-0.1-0.2-0.3-0.2-0.5v-17
	c0-0.2,0.1-0.4,0.2-0.5c0,0,0,0,0,0l0,0c0.1-0.1,0.3-0.2,0.5-0.2H146c0.4,0,0.8,0.3,0.8,0.8V29.6z"/>
</svg>
