<svg width="262" height="61" viewBox="0 0 262 61" fill="none" xmlns="http://www.w3.org/2000/svg">
<g clip-path="url(#clip0_401_75)">
<path d="M5.92 30.87H21.81L33.34 0H40.08L53.51 36H47.28L43.63 26.22H29.33L25.73 36H0V0H5.92V30.87ZM31.13 21.35H41.83L36.48 7L31.13 21.35ZM57 55.26C55 54.74 53 53.97 53 51.55C53 49.29 55 48.11 57.89 48.11C60.52 48.11 62.52 49.39 62.52 51.97H60.3C60.3 50.63 59.3 49.97 57.88 49.97C55.88 49.97 55.31 50.74 55.31 51.51C55.31 52.8 57.01 53.06 58.81 53.51C60.61 53.96 62.81 54.8 62.81 57.22C62.81 59.89 60.5 60.92 58.18 60.92C54.78 60.92 52.83 59.63 52.78 56.6H55C55 58.45 56.29 59.02 58.19 59.02C59.89 59.02 60.51 58.14 60.51 57.22C60.46 56 58.76 55.72 57 55.26ZM74.91 51L72.55 60.72H70.23L66.89 48.36H69.05L71.57 57.68L73.83 48.36H76.15L78.51 57.57L81 48.36H83L79.75 60.71H77.43L74.91 51ZM76.4 22.38V36H70.49V0H86C90.3 0 93 1 94.82 2.73C95.9596 3.81042 96.8565 5.12074 97.4513 6.57409C98.0461 8.02744 98.3252 9.59062 98.27 11.16C98.3261 12.7384 98.0477 14.3108 97.4531 15.774C96.8585 17.2372 95.9612 18.5581 94.82 19.65C93 21.35 90.3 22.38 86 22.38H76.4ZM76.4 17.24H85.46C87.93 17.24 89.01 16.88 89.88 16.24C90.6192 15.6195 91.2045 14.836 91.5897 13.951C91.9749 13.0661 92.1496 12.1039 92.1 11.14C92.1424 10.1916 91.964 9.24629 91.5787 8.37861C91.1935 7.51094 90.6119 6.7446 89.88 6.14C89.01 5.53 87.93 5.14 85.46 5.14H76.4V17.24ZM88.24 48.36H90.55V60.71H88.24V48.36ZM105.73 50.27H101.87V60.71H99.56V50.27H95.7V48.36H105.7L105.73 50.27ZM157.44 26.27H143L139.43 36H128.68L117.68 22.36H110.17V36H104.25V0H121.07C125.34 0 128.02 1 129.87 2.73C131.01 3.81042 131.907 5.12074 132.501 6.57409C133.096 8.02744 133.375 9.59062 133.32 11.16C133.32 17.03 130.08 20.94 124.52 21.92L134.35 34.11L147.05 0H153.79L167.22 36H161L157.44 26.27ZM109.85 60.71V59.07L116.79 50.27H110.36V48.36H119.62V50L112.57 58.8H119.88V60.7L109.85 60.71ZM120.5 17.24C122.97 17.24 124.05 16.88 124.92 16.24C125.657 15.618 126.241 14.8342 126.626 13.9496C127.012 13.0651 127.187 12.1036 127.14 11.14C127.18 10.1919 127.001 9.24734 126.616 8.38003C126.23 7.51273 125.65 6.74611 124.92 6.14C124.05 5.53 122.92 5.14 120.5 5.14H110.11V17.24H120.5ZM134.44 50.24H127.86V53.38H133.77V55.28H127.86V58.78H134.54V60.68H125.54V48.36H134.44V50.24ZM149.44 49.62C149.989 50.3636 150.28 51.2659 150.27 52.19C150.308 53.0702 150.01 53.932 149.436 54.6006C148.863 55.2691 148.056 55.6943 147.18 55.79L151 60.71H148.43L144.77 56.08H142.77V60.71H140.45V48.36H145.6C147.82 48.36 148.75 48.83 149.41 49.65L149.44 49.62ZM142.81 50.24V54.15H145.58C146.72 54.15 147.08 53.99 147.39 53.68C147.726 53.2521 147.908 52.7239 147.908 52.18C147.908 51.6361 147.726 51.1079 147.39 50.68C147.08 50.37 146.72 50.22 145.58 50.22L142.81 50.24ZM144.76 21.32H155.76L150.24 6.17L144.76 21.32ZM155.9 60.71V48.36H158.21V58.81H164.39V60.71H155.9ZM172.62 48.36H174.93L179.56 60.71H177.3L176.12 57.37H171.18L170 60.71H168L172.62 48.36ZM170.82 0H176.73V36H170.82V0ZM171.82 55.72H175.57L173.72 50.42L171.82 55.72ZM184.47 48.36H186.79L192.34 57.21V48.36H194.5V60.71H192.19L186.63 51.81V60.71H184.47V48.36ZM205.77 21.92L217.12 36H209.92L198.92 22.36H191.4V36H185.48V0H202.31C206.58 0 209.25 1 211.1 2.73C212.24 3.81042 213.137 5.12074 213.731 6.57409C214.326 8.02744 214.605 9.59062 214.55 11.16C214.55 17 211.31 20.94 205.75 21.92H205.77ZM201.77 17.24C204.24 17.24 205.32 16.88 206.19 16.24C206.929 15.6195 207.514 14.836 207.9 13.951C208.285 13.0661 208.46 12.1039 208.41 11.14C208.452 10.1916 208.274 9.24629 207.889 8.37861C207.503 7.51094 206.922 6.7446 206.19 6.14C205.32 5.53 204.24 5.14 201.77 5.14H191.35V17.24H201.77ZM200.95 48.36H204.81C207.53 48.36 208.92 48.98 209.81 49.96C210.87 51.2512 211.449 52.8698 211.449 54.54C211.449 56.2102 210.87 57.8288 209.81 59.12C208.88 60.12 207.49 60.71 204.81 60.71H200.95V48.36ZM203.26 50.27V58.81H204.86C206.76 58.81 207.58 58.4 208.15 57.81C208.789 56.8501 209.129 55.7229 209.129 54.57C209.129 53.4171 208.789 52.2899 208.15 51.33C207.58 50.71 206.76 50.33 204.86 50.33L203.26 50.27ZM221.24 0H227.16V36H221.24V0ZM241.82 19.91V30.91H261.89V36H235.89V0H261.62V5.15H241.82V14.77H260.6V19.91H241.82Z" fill="white"/>
</g>
<defs>
<clipPath id="clip0_401_75">
<rect width="262" height="61" fill="white"/>
</clipPath>
</defs>
</svg>
