<?xml version="1.0" encoding="utf-8"?>
<!-- Generator: Adobe Illustrator 26.3.1, SVG Export Plug-In . SVG Version: 6.00 Build 0)  -->
<svg version="1.1" id="圖層_1" xmlns="http://www.w3.org/2000/svg" xmlns:xlink="http://www.w3.org/1999/xlink" x="0px" y="0px"
	 viewBox="0 0 300 45" style="enable-background:new 0 0 300 45;" xml:space="preserve">
<style type="text/css">
	.st0{fill:#16924C;}
	.st1{fill:url(#SVGID_1_);}
	.st2{fill:url(#SVGID_00000055679172786622445040000016908458417045724304_);}
	.st3{fill:#FFFFFF;}
</style>
<g>
	<g>
		<path class="st0" d="M54.9,20.2c-0.7-0.7-1.6-1.9-1.7-3.4c0-0.4-0.1-0.8-0.2-1.2c-0.7-2.7-2.6-4.6-5.1-5.5
			c-0.2-0.1-0.4-0.1-0.5-0.2c-0.9-0.4-1.9-1.1-2.4-2.2c-1.5-2.8-4.5-4.4-8-4c-1.4,0.2-2.8-0.2-3.7-0.8C32,2,30.5,1.5,28.7,1.5
			c-1.8,0-3.2,0.5-4.5,1.4c-0.9,0.6-2.3,1-3.7,0.8c-3.4-0.4-6.4,1.3-8,4c-0.7,1.2-1.9,2-3,2.4c-2.7,0.9-5,3.4-5.3,6.7
			c-0.1,1.5-1,2.7-1.7,3.4C0.8,22,0,24.2,0,26.4c0,0,0,0.1,0,0.1c0.1,4.3,3.3,7.9,7.4,8.4C7.8,35,8.2,35,8.6,35H21
			c1.2,0,2.1,1,2.1,2.1v0.5c0,2-2,2.2-2,2.2l-10.1,1.7c-0.4,0.1-0.7,0.3-0.7,0.7v1.2H47v-1.2c0-0.4-0.3-0.6-0.7-0.7l-10.1-1.7
			c0,0-2-0.3-2-2.2v-0.5c0-1.2,1-2.1,2.1-2.1h12.4c4.8,0,8.6-3.9,8.6-8.6C57.5,24.2,56.7,22,54.9,20.2z"/>
		<g>
			<linearGradient id="SVGID_1_" gradientUnits="userSpaceOnUse" x1="35.9939" y1="-0.2152" x2="8.6788" y2="33.5162">
				<stop  offset="0" style="stop-color:#6FB647"/>
				<stop  offset="0.2266" style="stop-color:#58AD48"/>
				<stop  offset="0.7427" style="stop-color:#28994B"/>
				<stop  offset="1" style="stop-color:#16924C"/>
			</linearGradient>
			<path class="st1" d="M17.6,14.4c10.6-4.8,21.4-6.2,29.7-4.4c-0.9-0.4-1.9-1.1-2.4-2.2c-1.5-2.8-4.5-4.4-8-4
				c-1.4,0.2-2.8-0.2-3.7-0.8C32,2,30.5,1.5,28.7,1.5c-1.8,0-3.2,0.5-4.5,1.4c-0.9,0.6-2.3,1-3.7,0.8c-3.4-0.4-6.4,1.3-8,4
				c-0.7,1.2-1.9,2-3,2.4c-2.7,0.9-5,3.4-5.3,6.7c-0.1,1.5-1,2.7-1.7,3.4C0.8,22,0,24.2,0,26.4c0,0,0,0.1,0,0.1
				C4.5,21.8,10.5,17.6,17.6,14.4z"/>
			
				<linearGradient id="SVGID_00000103237326444328333150000018157786898715401600_" gradientUnits="userSpaceOnUse" x1="44.5559" y1="-1.2521" x2="11.9847" y2="38.9699">
				<stop  offset="0" style="stop-color:#52B049"/>
				<stop  offset="0.1578" style="stop-color:#43A84A"/>
				<stop  offset="0.4736" style="stop-color:#2A9C4B"/>
				<stop  offset="0.7632" style="stop-color:#1B954C"/>
				<stop  offset="1" style="stop-color:#16924C"/>
			</linearGradient>
			<path style="fill:url(#SVGID_00000103237326444328333150000018157786898715401600_);" d="M27,20.6c9.1-4.1,18.3-5.7,26-5
				c-0.7-2.7-2.6-4.6-5.1-5.5l0,0c-0.2-0.1-0.4-0.1-0.5-0.2c-8.3-1.7-19.1-0.3-29.7,4.4C10.5,17.6,4.5,21.8,0,26.5
				c0.1,4.3,3.3,7.9,7.4,8.4C12,29.4,18.8,24.3,27,20.6z"/>
			<g>
				<path class="st0" d="M54.9,20.2c-0.7-0.7-1.6-1.9-1.7-3.4c0-0.4-0.1-0.8-0.2-1.2c-7.7-0.7-16.9,0.9-26,5
					c-8.2,3.7-15,8.8-19.6,14.3C7.8,35,8.2,35,8.6,35H21c1.2,0,2.1,1,2.1,2.1v0.5c0,2-2,2.2-2,2.2l-10.1,1.7
					c-0.4,0.1-0.7,0.3-0.7,0.7v1.2H47v-1.2c0-0.4-0.3-0.6-0.7-0.7l-10.1-1.7c0,0-2-0.3-2-2.2v-0.5c0-1.2,1-2.1,2.1-2.1h12.4
					c4.8,0,8.6-3.9,8.6-8.6C57.5,24.2,56.7,22,54.9,20.2z"/>
			</g>
		</g>
	</g>
	<g>
		<path class="st3" d="M247.6,16.5h8.6v3.6h-8.6V16.5z M247.6,10.5h8.6v3.6h-8.6V10.5z M257,30.4c1-1.9,1.6-4,2.1-6
			c0.1-0.6-0.4-0.5-0.4-0.5h-2.3c-0.2,1.5-0.6,2.9-1,4.2c-1-1.7-1.8-3.6-2.1-5.6h4h0h1.6c0.2,0,0.4-0.2,0.4-0.4V9.6
			c0-1-0.9-1.5-1.6-1.5h-12.8c-0.2,0-0.4,0.2-0.4,0.4l0,28.3c0,0.2,0.2,0.4,0.4,0.4h0c1.8-0.1,5.2-0.8,8-1.8c0,0,0,0,0,0
			c0.1-0.1,0.3-0.2,0.3-0.4v-1.8c0,0,0-0.1-0.1-0.1c-1.9,0.4-3.9,0.7-5.5,0.9V22.5h2.1c1.8,6.5,5.8,11.7,11,14.6h0c0,0,0.1,0,0.2,0
			c0.2,0,0.4-0.2,0.4-0.4v0v-2.4C259.7,33.4,258.2,32,257,30.4 M242.9,32.1L242.9,32.1c-1.5,0.4-3.2,0.8-4.8,1.1l0-9.5h4.4
			c0.2,0,0.4-0.2,0.4-0.4l0-1.3c0-0.2-0.2-0.4-0.4-0.4h-4.4v-2.9h3.3c0.2,0,0.4-0.2,0.4-0.4v-1.3c0-0.2-0.2-0.4-0.4-0.4h-9.8
			c-0.2,0-0.4,0.2-0.4,0.4v1.3c0,0.2,0.2,0.4,0.4,0.4h3.3l0,2.9h-4.4c-0.2,0-0.4,0.2-0.4,0.4v1.3c0,0.2,0.2,0.4,0.4,0.4h4.4l0,10.1
			c-2.3,0.3-4.3,0.5-5.5,0.6h0c-0.2,0-0.4,0.2-0.4,0.4v2c0,0.2,0.2,0.4,0.4,0.4h0h0c3-0.1,9.3-1.3,13.2-3.1c0,0,0.2-0.1,0.2-0.4
			v-1.6C243,32.1,243,32.1,242.9,32.1 M239.2,8.1H234c-0.5,0-0.8,0.3-1,0.8c-0.1,0.2-0.1,0.3-0.2,0.5c-1,2.8-2.5,4.7-3.8,6v1.6
			c0,0.2,0.1,0.3,0.3,0.3c0,0,0.1,0,0.1,0c0,0,0.1-0.1,0.1-0.1c3.3-2,5.5-4.2,6.9-6.9c1.3,2.4,3.2,4.5,6,6.3c0,0,0.1,0.1,0.1,0.1
			c0,0,0.1,0,0.1,0c0.1,0,0.3-0.1,0.3-0.2v-2c-1-1.1-2-3.1-2.8-5.2C240.1,8.7,240,8,239.2,8.1 M242.3,25.3l-2.3,0
			c-0.2,0-0.4,0.2-0.4,0.4l-0.3,5.7c0,0,0,0.1,0.1,0.1h2c0.1,0,0.2-0.1,0.2-0.2l0.9-5.7v0C242.5,25.4,242.4,25.3,242.3,25.3
			 M231.7,31.5h2c0,0,0.1,0,0.1-0.1l-0.3-5.7c0-0.2-0.2-0.4-0.4-0.4h-2.2c-0.1,0-0.2,0.1-0.2,0.2v0l0.9,5.7
			C231.5,31.4,231.6,31.5,231.7,31.5"/>
		<path class="st3" d="M174.6,26.8h-6.5v-8.2h6.5V26.8z M182.9,16.1h-4.3v-6c0-1-0.8-1.7-1.7-1.7l-1.9,0c-0.2,0-0.4,0.2-0.4,0.4
			c0,0,0,0,0,0l0,7.4h-6.5V8.8c0-0.2-0.2-0.4-0.4-0.4h-1.8c-1,0-1.8,0.8-1.8,1.8v6h-5.7V9.5c0-0.2-0.2-0.4-0.4-0.4h-1.8
			c-1,0-1.7,0.8-1.7,1.7v5.3h-3c-0.2,0-0.3,0.2-0.3,0.3v1.7c0,0.2,0.1,0.3,0.3,0.3h3v16.9c0,1,0.8,1.8,1.8,1.8h25.2
			c0.2,0,0.4-0.2,0.4-0.4v-1.6c0-0.2-0.2-0.4-0.4-0.4h-23V18.5h5.7v8.9c0,1,0.8,1.8,1.7,1.8h11c1,0,1.8-0.8,1.8-1.8v-8.9h4.3
			c0.2,0,0.3-0.1,0.3-0.3v-1.7C183.3,16.3,183.1,16.1,182.9,16.1"/>
		<path class="st3" d="M299.7,17.2h-19.1c-0.2,0-0.3,0.1-0.3,0.3v1.8c0,0.2,0.1,0.3,0.3,0.3h11v14.2c0,0.9-0.2,1.3-1.7,1.3h-1.4
			c-0.1,0-0.1,0.1-0.1,0.1v1.7c0,0.2,0.1,0.3,0.3,0.3h0.2h0h2.2c0.2,0,0.5,0,0.7,0c2.9-0.1,3.8-0.7,3.8-3.5V19.6h4.2
			c0.2,0,0.3-0.1,0.3-0.3v-1.8C300,17.3,299.9,17.2,299.7,17.2 M282.4,11.5h15.8c0.2,0,0.3-0.1,0.3-0.3V9.4c0-0.2-0.1-0.3-0.3-0.3
			h-15.8c-0.2,0-0.3,0.1-0.3,0.3v1.7C282.1,11.4,282.3,11.5,282.4,11.5 M278.9,8.1h-3.3c-1.1,1.4-3.4,4.6-7.3,6v0
			c0,0-0.1,0.1-0.1,0.1c0,0,0,0,0,0v1.6c0,0-0.1,0.7,0.6,0.5c6.7-2.3,9-5.7,10.4-7.8C279.4,8,278.9,8.1,278.9,8.1 M278.9,15h-3.3
			c-1.1,1.4-3.4,4.6-7.3,6c0,0,0,0,0,0c0,0-0.1,0.1-0.1,0.1v0v1.6c0,0-0.1,0.7,0.6,0.5c1.1-0.4,2.2-0.8,3.1-1.2v13.4
			c0,1,0.8,1.8,1.8,1.8h1.8c0.2,0,0.4-0.2,0.4-0.4l0-17.3c1.7-1.5,2.6-2.9,3.4-4C279.4,15,278.9,15,278.9,15"/>
		<path class="st3" d="M90.2,27.4c-4,1.1-8.7,1.5-10.8,1.6h0c-0.2,0-0.3,0.2-0.3,0.3v2.4c0,0.2,0.1,0.3,0.3,0.3h0
			c1.2,0,3.1-0.3,5.1-0.8c2-0.5,4.1-1.1,5.7-1.8c0,0,0.2-0.1,0.2-0.3v-1.5C90.5,27.3,90.2,27.4,90.2,27.4 M86.7,19.3h-3.8l0,4.7h3.8
			V19.3z M90.5,19.3v4.9c0,0.9-0.8,1.7-1.7,1.7h-7.9c-0.9,0-1.7-0.8-1.7-1.7v-4.9c0-0.9,0.8-1.7,1.7-1.7h7.9
			C89.7,17.5,90.5,18.3,90.5,19.3 M101.2,10.7h-1.8c0.2,0.9,0.5,2.5,0.7,4.1c0,0.9-0.7,0.9-0.7,0.9h-5.1c0.2,2.4,0.7,5.4,1.7,8.4
			c0.5-1,1-2,1.5-3c0.1-0.2,0.3-0.2,0.3-0.2l2,0.8c0,0,0.2,0.1,0.1,0.3c-0.8,1.6-1.7,3.3-2.8,4.9c0.9,2,2,4,3.5,5.7
			c0.2,0.1,0,0.2,0,0.2l-1,1.1c0,0-0.2,0.2-0.3,0c-1.5-1.4-2.8-3.1-3.8-4.9c-1.5,1.8-3.3,3.4-5.4,4.6c-0.2,0.2-0.3-0.1-0.3-0.1
			l-0.6-1.2c0,0-0.1-0.2,0.1-0.3c2-1.4,3.7-3.2,5.1-5.3c-1.7-3.8-2.5-7.9-2.9-11H77.6v19.3h23.6V10.7z M77.6,13.6h13.6
			c-0.1-1.3-0.2-2.3-0.2-2.9H77.6L77.6,13.6z M94.2,13.6H97c-0.2-1.2-0.4-2.2-0.5-2.9h-2.4C94.1,11.3,94.1,12.3,94.2,13.6
			 M105.1,10.4l0,25.1c0,0.9-0.8,1.7-1.7,1.7h-28c-0.9,0-1.7-0.8-1.7-1.7V10.4c0-0.9,0.8-1.7,1.7-1.7h28
			C104.3,8.6,105.1,9.4,105.1,10.4 M90.5,29v-1.5c0-0.3-0.2-0.2-0.2-0.2c-4,1.1-8.7,1.5-10.8,1.6h0c-0.2,0-0.3,0.2-0.3,0.3v2.4
			c0,0.2,0.1,0.3,0.3,0.3h0c1.2,0,3.1-0.3,5.1-0.8c2-0.5,4.1-1.1,5.7-1.8C90.3,29.3,90.5,29.3,90.5,29 M86.7,19.3h-3.8l0,4.7h3.8
			V19.3z M90.5,19.3v4.9c0,0.9-0.8,1.7-1.7,1.7h-7.9c-0.9,0-1.7-0.8-1.7-1.7v-4.9c0-0.9,0.8-1.7,1.7-1.7h7.9
			C89.7,17.5,90.5,18.3,90.5,19.3 M86.7,19.3h-3.8l0,4.7h3.8V19.3z M90.5,19.3v4.9c0,0.9-0.8,1.7-1.7,1.7h-7.9
			c-0.9,0-1.7-0.8-1.7-1.7v-4.9c0-0.9,0.8-1.7,1.7-1.7h7.9C89.7,17.5,90.5,18.3,90.5,19.3 M90.5,27.6V29c0,0.2-0.2,0.3-0.2,0.3
			c-1.6,0.7-3.7,1.3-5.7,1.8c-2,0.5-3.9,0.8-5.1,0.8h0c-0.2,0-0.3-0.1-0.3-0.3v-2.4c0-0.2,0.1-0.3,0.3-0.3h0
			c2.1-0.1,6.8-0.4,10.8-1.6C90.2,27.4,90.5,27.3,90.5,27.6"/>
		<path class="st3" d="M141.8,33.7c-2.9-1.3-6.2-2.5-9.2-3.2c-0.3-0.1-0.3,0.1-0.3,0.1l-0.6,1.3c0,0-0.1,0.3,0.1,0.4
			c2.9,1.3,5.4,2.3,8.1,3.9c0.3,0.1,0.6,0.1,0.8-0.1c0.5-0.7,0.7-1.1,1.2-1.8C142,34,141.9,33.8,141.8,33.7 M125.3,31.6
			c-0.1-0.7-0.1-0.6-0.3-1.3c0-0.1-0.1-0.2-0.3-0.2c-3.2,1.7-6.3,2.5-9.8,3.4c-0.2,0.1-0.3,0.2-0.2,0.4c0.3,0.6,0.8,1.6,1,2.1
			c0.1,0.1,0.3,0.3,0.5,0.2c2.8-0.9,6.3-2.7,8.9-4.2C125.3,31.9,125.4,31.8,125.3,31.6 M144,20.1h-19.9c0.7-0.9,1.4-1.8,1.9-2.7
			h14.2c0.2,0,0.3-0.1,0.3-0.3v-1.7c0-0.2-0.1-0.3-0.3-0.3h-12.8c0.6-1,1-1.9,1.4-2.7h14c0.2,0,0.3-0.1,0.3-0.3v-1.7
			c0-0.2-0.1-0.3-0.3-0.3H130c0.1-0.3,0.2-0.6,0.3-0.9c0.1-0.3,0.1-0.6-0.3-0.6c-0.8-0.2-2.3-0.5-2.8-0.6c-0.6-0.1-0.7,0.5-0.7,0.5
			l-0.3,0.8c-0.1,0.3-0.2,0.5-0.3,0.8h-11.5c-0.2,0-0.3,0.1-0.3,0.3v1.7c0,0.2,0.1,0.3,0.3,0.3H125c-0.4,0.9-0.8,1.8-1.3,2.7H117
			c-0.2,0-0.3,0.1-0.3,0.3V17c0,0.2,0.1,0.3,0.3,0.3h5.3c-0.6,0.9-1.2,1.8-1.9,2.7h-7.2c-0.2,0-0.3,0.1-0.3,0.3v1.7
			c0,0.2,0.1,0.3,0.3,0.3h5.2c-1.5,1.6-3.3,3-5.2,3.9c-0.5,0.2-0.3,0.6-0.3,0.6l0.4,0.9c0,0,0.1,0.4,0.6,0.2c1.2-0.4,2.4-1,3.5-1.7
			c2.5,0.6,5.6,2,6.3,2.3c0.2,0.1,0.3-0.1,0.3-0.1l0.9-1.9c0,0,0.2-0.2-0.1-0.4c-1.1-0.5-3.4-1.1-5.3-1.6c0.9-0.7,1.7-1.5,2.5-2.4
			h12.5c0.7,0.8,1.6,1.5,2.5,2.2c-1.5,0.7-3.9,1.2-5.2,1.4c-0.2,0-0.2,0.1-0.2,0.3c0.3,0.8,0.3,1.4,0.6,2.1c0.1,0.3,0.2,0.2,0.4,0.2
			c0.9-0.1,4.7-1.6,6.4-2.7c1.4,0.9,2.8,1.6,4.3,2.1c0.5,0.2,0.6-0.2,0.6-0.2l0.4-0.9c0,0,0.2-0.5-0.3-0.6c-1.9-0.9-4.2-2.3-5.8-3.9
			h5.8c0.2,0,0.3-0.1,0.3-0.3v-1.7C144.3,20.2,144.2,20.1,144,20.1 M128.8,24H127c-0.2,0-0.4,0.2-0.4,0.4v9.3c0,0.9-0.2,1.3-1.6,1.3
			h-0.8c-0.1,0-0.1,0.1-0.1,0.1v1.5c0,0.3,0.2,0.5,0.5,0.5h1.5c3.4,0,4.4-0.5,4.4-3.4l0-8C130.5,24.8,129.7,24,128.8,24"/>
		<path class="st3" d="M212.9,20.5h-4.8v-3h4.8V20.5z M212.9,25.8h-4.8v-3h4.8V25.8z M204.3,20.5h-4.9v-3h4.9V20.5z M204.3,25.8
			h-4.9v-3h4.9V25.8z M221.9,22.8c0.2,0,0.3-0.2,0.3-0.3v-1.7c0-0.2-0.2-0.3-0.3-0.3h-5.2v-3h2.9c0.2,0,0.3-0.1,0.3-0.3v-1.6
			c0-0.2-0.2-0.3-0.3-0.3h-26.7c-0.2,0-0.3,0.1-0.3,0.3v1.6c0,0.2,0.1,0.3,0.3,0.3h2.9v3h-5.2c-0.2,0-0.3,0.1-0.3,0.3v1.7
			c0,0.2,0.1,0.3,0.3,0.3h5.2v3h-2.9c-0.2,0-0.3,0.1-0.3,0.3v1.6c0,0.2,0.1,0.3,0.3,0.3h11.5v3h-13.8c-0.2,0-0.3,0.2-0.3,0.3V33
			c0,0.2,0.1,0.3,0.3,0.3h13.8v2.1c0,1,0.8,1.8,1.8,1.8h1.6c0.2,0,0.4-0.2,0.4-0.4v-3.5h13.8c0.2,0,0.3-0.1,0.3-0.3v-1.6
			c0-0.2-0.2-0.3-0.3-0.3h-13.8v-3h11.5c0.2,0,0.3-0.1,0.3-0.3v-1.6c0-0.2-0.2-0.3-0.3-0.3h-2.9v-3H221.9z M221.9,9.9h-7.2
			c-0.1-0.9-0.8-1.6-1.7-1.6h-1.6c-0.2,0-0.4,0.2-0.4,0.4v1.2h-9.5V8.8c0-0.2-0.2-0.4-0.4-0.4h-1.6c-0.9,0-1.6,0.7-1.7,1.6h-7.2
			c-0.2,0-0.3,0.1-0.3,0.3v1.6c0,0.2,0.1,0.3,0.3,0.3h7.2v1.3c0,0.2,0.2,0.4,0.4,0.4h2.9c0.2,0,0.4-0.2,0.4-0.4v-1.3h9.5v1.3
			c0,0.2,0.2,0.4,0.4,0.4h2.9c0.2,0,0.4-0.2,0.4-0.4v-1.3h7.2c0.2,0,0.3-0.1,0.3-0.3v-1.6C222.2,10.1,222.1,9.9,221.9,9.9"/>
	</g>
</g>
</svg>
