<?xml version="1.0" encoding="utf-8"?>
<!-- Generator: Adobe Illustrator 26.3.1, SVG Export Plug-In . SVG Version: 6.00 Build 0)  -->
<svg version="1.1" id="圖層_1" xmlns="http://www.w3.org/2000/svg" xmlns:xlink="http://www.w3.org/1999/xlink" x="0px" y="0px"
	 viewBox="0 0 34 34" style="enable-background:new 0 0 34 34;" xml:space="preserve">
<style type="text/css">
	.st0{fill:#985C20;}
</style>
<g id="ScDYtm_00000086686968333059033500000018310026227487954085_">
	<g>
		<path class="st0" d="M16.2,3.6c0.6,0,1.1,0,1.7,0c0.1,0,0.1,0,0.2,0c0.8,0.1,1.7,0.2,2.5,0.4c5.3,1.6,8.5,5.2,9.7,10.6
			c0.1,0.5,0.1,1,0.2,1.5c0,0.6,0,1.1,0,1.7c0,0.4-0.1,0.8-0.2,1.1c-0.4,3-1.7,5.5-3.9,7.6c-3.3,3.1-7.2,4.4-11.7,3.6
			c-3.3-0.5-6-2.2-8.1-4.7C3.9,22.1,3,18.3,3.9,14.1C5,8.9,9.4,4.6,14.7,3.8C15.2,3.7,15.7,3.7,16.2,3.6z M5.5,17
			c0,6.4,5.1,11.5,11.5,11.6c6.4,0,11.5-5.1,11.6-11.5c0-6.4-5.1-11.5-11.5-11.6C10.7,5.4,5.5,10.6,5.5,17z"/>
		<path class="st0" d="M16.6,10.3c0.9,0,1.6,0.1,2.3,0.4c1.6,0.8,2.1,2.4,1.3,3.9c-0.4,0.7-0.9,1.2-1.5,1.7
			c-0.1,0.1-0.3,0.2-0.4,0.4c-0.4,0.4-0.6,0.9-0.6,1.4c0,0.2,0,0.3,0,0.5c0,0.3-0.2,0.5-0.5,0.6c-0.1,0-0.1,0-0.2,0.1
			c-1,0.2-1.3-0.1-1.3-1.1c0-1.2,0.4-2.1,1.3-2.8c0.3-0.2,0.6-0.4,0.8-0.7c0.2-0.3,0.4-0.6,0.5-0.9c0.2-0.6-0.1-1.1-0.7-1.4
			c-0.9-0.4-1.9-0.1-2.5,0.7c-0.4,0.6-1.1,0.7-1.5,0.2c-0.3-0.3-0.3-0.7-0.2-1.1c0.3-0.8,0.8-1.3,1.6-1.6
			C15.6,10.4,16.2,10.3,16.6,10.3z"/>
		<path class="st0" d="M18,21.9c0,0.7-0.6,1.4-1.3,1.4c-0.7,0-1.4-0.6-1.3-1.4c0-0.7,0.6-1.3,1.4-1.3C17.4,20.6,18,21.2,18,21.9z"/>
	</g>
</g>
</svg>
