<?xml version="1.0" encoding="utf-8"?>
<!-- Generator: Adobe Illustrator 26.3.1, SVG Export Plug-In . SVG Version: 6.00 Build 0)  -->
<svg version="1.1" id="圖層_1" xmlns="http://www.w3.org/2000/svg" xmlns:xlink="http://www.w3.org/1999/xlink" x="0px" y="0px"
	 viewBox="0 0 34 34" style="enable-background:new 0 0 34 34;" xml:space="preserve">
<style type="text/css">
	.st0{fill:#985C20;}
</style>
<g id="MvxD7X_00000093890263563711739020000010404582117353969812_">
	<g>
		<path class="st0" d="M3.2,1.7c5.4,0,10.9,0,16.3,0c0.2,0.1,0.3,0.2,0.5,0.4c1.8,1.8,3.7,3.7,5.5,5.5c0.3,0.2,0.4,0.5,0.4,0.9
			c0,2,0,4,0,6c0,0.3,0.1,0.6,0.3,0.8c2.1,2.4,2.4,5.8,1,8.6C27,24,27,24.2,27.2,24.3c1.4,1.4,2.8,2.8,4.2,4.2
			c0.3,0.3,0.6,0.7,0.8,1.2c0,0.4,0,0.8,0,1.1c-0.2,0.3-0.4,0.6-0.6,0.9c-0.8,0.8-2,0.7-2.9-0.1c-0.9-0.9-1.8-1.8-2.7-2.7
			c-0.1-0.1-0.1-0.1-0.3-0.2c0,0.6,0,1.1,0,1.6c0,1.2-0.7,2-2,2c-6.7,0-13.5,0-20.2,0c-1.2,0-2-0.7-2-2c0-1.9,0-3.8,0-5.8
			c0-6.9,0-13.9,0-20.8c0-0.5,0.1-1.1,0.5-1.4C2.5,2,2.9,1.9,3.2,1.7z M18.8,2.9c-0.1,0-0.1,0-0.2,0c-5,0-10,0-15,0
			c-0.5,0-0.7,0.2-0.7,0.7c0,8.9,0,17.8,0,26.7c0,0.5,0.2,0.7,0.7,0.7c6.7,0,13.5,0,20.2,0c0.5,0,0.7-0.2,0.7-0.7c0-0.8,0-1.5,0-2.3
			c0-0.5-0.2-0.8-0.6-1.1c-0.1,0-0.2,0.1-0.3,0.1c-1.5,0.8-3.1,1-4.7,0.8c-2.5-0.4-4.4-1.7-5.6-3.9c-0.1-0.1-0.2-0.2-0.3-0.2
			c-2.4,0-4.9,0-7.3,0c-0.5,0-0.8-0.2-0.8-0.6c0-0.4,0.3-0.6,0.9-0.6c2.2,0,4.5,0,6.7,0c0.1,0,0.2,0,0.3,0c-0.8-3.3-0.1-6.2,2.5-8.4
			c2.9-2.3,6.1-2.3,9.3-0.4c0-1.7,0-3.3,0-5c-0.1,0-0.2,0-0.3,0c-1.2,0-2.4,0-3.6,0c-0.3,0-0.6-0.1-0.9-0.2c-0.7-0.3-1-0.9-1-1.7
			C18.8,5.6,18.8,4.3,18.8,2.9z M26.8,20.2c0-3.6-3-6.6-6.6-6.6c-3.6,0-6.5,2.9-6.6,6.6c0,3.6,2.9,6.6,6.6,6.6
			C23.9,26.8,26.8,23.8,26.8,20.2z M25.2,26.3c0.3,0.3,0.6,0.6,0.9,0.9c1.2,1.2,2.4,2.4,3.5,3.5c0.2,0.2,0.5,0.4,0.9,0.3
			c0.7-0.2,0.8-0.9,0.3-1.5c-1.5-1.5-2.9-2.9-4.4-4.4c0,0-0.1-0.1-0.1,0C26,25.6,25.6,25.9,25.2,26.3z M20,3.8c0,1,0,2,0,3
			c0,0.5,0.2,0.7,0.7,0.7c0.7,0,1.5,0,2.2,0c0.3,0,0.5,0,0.7,0C22.5,6.3,21.3,5.1,20,3.8z"/>
		<path class="st0" d="M11.3,6.1c1.8,0,3.6,0,5.4,0c0.1,0,0.2,0,0.3,0c0.3,0,0.6,0.2,0.6,0.6c0,0.3-0.2,0.6-0.5,0.6
			c-0.1,0-0.2,0-0.3,0c-3.7,0-7.3,0-11,0c-0.1,0-0.3,0-0.4,0C5.2,7.2,5,6.9,5,6.6c0-0.3,0.2-0.5,0.5-0.6c0.1,0,0.2,0,0.3,0
			C7.7,6.1,9.5,6.1,11.3,6.1z"/>
		<path class="st0" d="M12.6,11.4c-1.4,0-2.8,0-4.2,0c-0.1,0-0.2,0-0.4,0c-0.3-0.1-0.5-0.3-0.5-0.5c0-0.3,0.1-0.5,0.4-0.6
			c0.1,0,0.3,0,0.4,0c2.8,0,5.7,0,8.5,0c0.1,0,0.2,0,0.4,0c0.3,0.1,0.5,0.3,0.4,0.6c0,0.3-0.2,0.5-0.5,0.5c-0.1,0-0.2,0-0.3,0
			C15.4,11.4,14,11.4,12.6,11.4z"/>
		<path class="st0" d="M8.4,15.5c-0.9,0-1.8,0-2.6,0c-0.1,0-0.3,0-0.4,0C5.2,15.4,5,15.2,5,14.9c0-0.3,0.1-0.5,0.4-0.6
			c0.1,0,0.3,0,0.4,0c1.8,0,3.5,0,5.3,0c0,0,0.1,0,0.1,0c0.5,0,0.7,0.2,0.7,0.6c0,0.4-0.3,0.6-0.7,0.6C10.2,15.5,9.3,15.5,8.4,15.5z
			"/>
		<path class="st0" d="M8.3,18.5c0.9,0,1.7,0,2.6,0c0.3,0,0.5,0.1,0.6,0.3c0.2,0.3,0,0.7-0.3,0.8c-0.1,0-0.3,0-0.4,0
			c-1.6,0-3.3,0-4.9,0c0,0-0.1,0-0.1,0c-0.4,0-0.7-0.3-0.7-0.6c0-0.3,0.3-0.6,0.7-0.6C6.5,18.5,7.4,18.5,8.3,18.5z"/>
		<path class="st0" d="M8.1,28c-0.8,0-1.6,0-2.4,0c-0.5,0-0.8-0.4-0.6-0.8c0.1-0.2,0.3-0.3,0.4-0.4c0.1-0.1,0.2,0,0.4,0
			c1.5,0,3.1,0,4.6,0c0.5,0,0.8,0.2,0.8,0.6c0,0.4-0.3,0.6-0.8,0.6C9.6,28,8.9,28,8.1,28z"/>
		<path class="st0" d="M5.6,11.4c-0.3,0-0.6-0.3-0.6-0.6c0-0.3,0.3-0.6,0.6-0.6c0.3,0,0.6,0.3,0.6,0.6C6.2,11.1,5.9,11.4,5.6,11.4z"
			/>
		<path class="st0" d="M13.1,27.9c-0.3,0-0.6-0.3-0.6-0.6c0-0.3,0.3-0.6,0.6-0.6c0.3,0,0.6,0.3,0.6,0.6
			C13.7,27.7,13.4,27.9,13.1,27.9z"/>
		<path class="st0" d="M20.3,25.5c-2.9,0-5.3-2.4-5.3-5.3c0-2.9,2.4-5.2,5.2-5.2c2.9,0,5.3,2.4,5.3,5.3
			C25.5,23.1,23.1,25.5,20.3,25.5z M20.3,24.3c2.2,0,4.1-1.8,4.1-4.1c0-2.2-1.8-4-4-4c-2.2,0-4.1,1.8-4.1,4.1
			C16.2,22.5,18,24.3,20.3,24.3z"/>
		<path class="st0" d="M20.3,17.5c1.4,0,2.6,1.2,2.6,2.6c0,0.4-0.2,0.6-0.5,0.7c-0.3,0-0.6-0.2-0.6-0.6c0-0.8-0.7-1.5-1.5-1.5
			c-0.4,0-0.6-0.3-0.6-0.6C19.7,17.8,20,17.5,20.3,17.5z"/>
	</g>
</g>
</svg>
