<?xml version="1.0" encoding="utf-8"?>
<!-- Generator: Adobe Illustrator 26.3.1, SVG Export Plug-In . SVG Version: 6.00 Build 0)  -->
<svg version="1.1" id="圖層_1" xmlns="http://www.w3.org/2000/svg" xmlns:xlink="http://www.w3.org/1999/xlink" x="0px" y="0px"
	 viewBox="0 0 34 34" style="enable-background:new 0 0 34 34;" xml:space="preserve">
<style type="text/css">
	.st0{fill:#985C20;}
</style>
<g id="gNQHEh_00000129884832557749154750000007024540918998019969_">
	<g>
		<path class="st0" d="M18.5,20.1c0.1,1,0.3,2,0.8,2.9c0,0.1,0.2,0.1,0.3,0.1c0.4,0,0.9,0,1.3,0c0.4,0,0.5,0.1,0.5,0.5
			c0,0.6,0,1.2,0,1.9c0.4,0,0.9,0,1.3,0c0.5,0,0.5,0,0.7,0.5c0.4,1.4,0.9,2.8,1.3,4.3c0.2,0.5,0,0.7-0.5,0.7c-4.8,0-9.6,0-14.3,0
			c-0.5,0-0.7-0.2-0.5-0.7c0.4-1.5,0.9-2.9,1.3-4.4c0.1-0.4,0.2-0.4,0.6-0.4c0.4,0,0.9,0,1.4,0c0-0.5,0-1.1,0-1.6
			c0-0.8,0-0.9,0.8-0.9c0.3,0,0.7,0,1,0c0.1,0,0.2,0,0.2-0.1c0.5-0.9,0.8-1.9,0.8-2.9c0,0-0.1,0-0.1,0c-0.7,0-0.7-0.1-0.7-0.8
			c0-0.3,0-0.7,0-1c0-0.1-0.1-0.2-0.2-0.3c-0.9-0.4-1.7-1-2.3-1.7c-0.1-0.1-0.2-0.2-0.4-0.2c-2.1-0.7-4.1-1.7-5.8-3.2
			c-1.4-1.2-2.4-2.7-2.8-4.5C2.9,7.7,2.9,7,3.1,6.3c0.3-1.2,1.4-2.1,2.7-2.2c0.9-0.1,1.7,0.1,2.5,0.4c0.1,0,0.1,0.1,0.2,0.1
			C8.5,4.3,8.4,4,8.3,3.6c-0.1-0.5,0-0.7,0.5-0.7c5.4,0,10.8,0,16.3,0c0.5,0,0.6,0.2,0.5,0.7c-0.1,0.4-0.2,0.7-0.3,1.1
			c0.7-0.3,1.5-0.5,2.2-0.6c0.6,0,1.2,0.1,1.7,0.3c1.2,0.5,1.8,1.7,1.7,3c-0.2,1.9-1,3.4-2.3,4.8c-1.6,1.6-3.5,2.7-5.6,3.5
			c-0.7,0.2-1.2,0.6-1.7,1c-0.5,0.5-1.1,0.8-1.7,1.1c-0.2,0.1-0.2,0.2-0.2,0.4c0,0.4,0,0.8,0,1.2c0,0.5-0.1,0.6-0.6,0.6
			C18.7,20.1,18.6,20.1,18.5,20.1z M24.8,3.8c-5.2,0-10.4,0-15.5,0c0,0.1,0,0.2,0,0.3c0.7,3,1.4,6.1,2.1,9.1
			c0.6,2.7,2.9,4.6,5.6,4.6c2.7,0,5-1.8,5.6-4.6c0.6-2.6,1.2-5.2,1.8-7.7C24.5,4.9,24.6,4.3,24.8,3.8z M10.2,30.2c4.6,0,9,0,13.6,0
			c0,0,0-0.1,0-0.1c-0.4-1.2-0.7-2.4-1.1-3.6c0-0.1-0.2-0.2-0.3-0.2c-3.6,0-7.3,0-10.9,0c-0.2,0-0.2,0.1-0.3,0.2
			c-0.1,0.5-0.3,1-0.4,1.5C10.6,28.8,10.4,29.5,10.2,30.2z M23.4,13.2c1.5-0.7,2.8-1.5,3.8-2.8c0.5-0.7,0.9-1.5,1-2.3
			c0.1-0.7-0.3-1.1-1.1-1.1c-0.8,0-1.6,0.3-2.3,0.7c-0.1,0-0.1,0.1-0.1,0.2c-0.1,0.4-0.2,0.8-0.3,1.1C24.1,10.4,23.8,11.7,23.4,13.2
			z M10.6,13.2c-0.4-1.8-0.8-3.6-1.3-5.4c0-0.1-0.1-0.2-0.1-0.2C8.4,7.1,7.6,6.8,6.7,6.9c-0.6,0-1,0.4-0.9,1c0.1,0.5,0.2,1,0.4,1.5
			C7.1,11.3,8.7,12.3,10.6,13.2z M9,6.5C8.9,6.2,8.9,5.8,8.5,5.6C7.9,5.2,7.2,5,6.4,5C4.6,4.9,3.6,6,3.8,7.7
			c0.2,1.4,0.9,2.6,1.8,3.7c1.5,1.7,3.4,2.7,5.4,3.5c0,0,0.1,0,0.1,0c-0.1-0.1-0.1-0.2-0.2-0.4c-0.1-0.3-0.3-0.5-0.6-0.6
			C9.2,13.5,8,12.8,7,11.9c-1-1-1.8-2.1-2-3.5c-0.2-1.1,0.3-2,1.3-2.2c0.4-0.1,0.8-0.1,1.1,0C8,6.2,8.5,6.4,9,6.5z M25,6.5
			c0.5-0.1,1-0.3,1.5-0.4c1.7-0.3,2.8,0.8,2.4,2.5c-0.2,0.9-0.6,1.7-1.2,2.4c-1.1,1.4-2.6,2.3-4.2,3c-0.5,0.2-0.5,0.6-0.7,1
			c0.2-0.1,0.4-0.1,0.6-0.2c1.8-0.8,3.5-1.8,4.8-3.3c1-1.1,1.7-2.4,1.9-3.9c0.1-1.3-0.5-2.2-1.8-2.5c-1-0.2-2,0-2.9,0.5
			C25.2,5.8,25,6.1,25,6.5z M13.4,24c0,0.5,0,1,0,1.6c2.4,0,4.8,0,7.2,0c0-0.5,0-1,0-1.6C18.2,24,15.8,24,13.4,24z M15.6,23.1
			c0.9,0,1.8,0,2.8,0c-0.5-1-0.7-1.9-0.8-3c-0.5,0-0.9,0-1.3,0C16.1,21.2,15.9,22.1,15.6,23.1z M15.5,19.3c1,0,2.1,0,3.1,0
			c0-0.3,0-0.6,0-0.9c-1,0.2-2.1,0.2-3.1,0C15.5,18.7,15.5,19,15.5,19.3z"/>
		<path class="st0" d="M14.6,8.4c0.3,0,0.7,0,1,0c0.2,0,0.2-0.1,0.3-0.2c0.2-0.7,0.4-1.3,0.7-2C16.6,6,16.7,5.8,17,5.8
			c0.2,0,0.4,0.2,0.4,0.4c0.2,0.7,0.4,1.3,0.6,2c0.1,0.2,0.2,0.3,0.4,0.3c0.6,0,1.3,0,1.9,0c0.2,0,0.4,0,0.5,0.3
			c0.1,0.2,0,0.4-0.2,0.5c-0.4,0.4-0.9,0.9-1.3,1.3c-0.1,0.1-0.1,0.2-0.1,0.4c0.2,0.7,0.5,1.4,0.7,2c0.1,0.2,0.1,0.4-0.1,0.6
			c-0.2,0.2-0.4,0.1-0.6,0c-0.7-0.5-1.4-0.9-2.1-1.4c-0.2-0.1-0.3-0.1-0.4,0c-0.7,0.5-1.4,0.9-2.1,1.4c-0.2,0.1-0.4,0.2-0.6,0.1
			c-0.2-0.2-0.2-0.4-0.1-0.6c0.2-0.7,0.4-1.3,0.7-2c0.1-0.2,0-0.3-0.1-0.5c-0.4-0.4-0.9-0.8-1.3-1.3c-0.1-0.1-0.3-0.3-0.2-0.5
			c0.1-0.2,0.3-0.3,0.5-0.3C14,8.4,14.3,8.4,14.6,8.4z M14.6,9.3C14.6,9.3,14.6,9.3,14.6,9.3c0.2,0.3,0.5,0.6,0.8,0.9
			c0.2,0.2,0.3,0.4,0.2,0.7c-0.2,0.4-0.3,0.8-0.4,1.3c0.5-0.3,1-0.6,1.4-0.9c0.4-0.3,0.5-0.3,0.8,0c0.4,0.3,0.9,0.6,1.4,0.9
			c-0.1-0.4-0.2-0.8-0.4-1.1c-0.2-0.4-0.1-0.8,0.3-1.1c0.3-0.2,0.5-0.5,0.8-0.8c-0.5,0-1,0-1.4,0c-0.4,0-0.5-0.1-0.6-0.5
			C17.3,8.4,17.2,8,17,7.6c-0.2,0.4-0.4,0.8-0.5,1.3c-0.1,0.3-0.2,0.4-0.5,0.4C15.6,9.3,15.1,9.3,14.6,9.3z"/>
	</g>
</g>
</svg>
