<?xml version="1.0" encoding="utf-8"?>
<!-- Generator: Adobe Illustrator 26.3.1, SVG Export Plug-In . SVG Version: 6.00 Build 0)  -->
<svg version="1.1" id="圖層_1" xmlns="http://www.w3.org/2000/svg" xmlns:xlink="http://www.w3.org/1999/xlink" x="0px" y="0px"
	 viewBox="0 0 34 34" style="enable-background:new 0 0 34 34;" xml:space="preserve">
<style type="text/css">
	.st0{fill:#985C20;}
</style>
<g id="GsTaIF_00000122709470420362531590000015690001499464586683_">
	<g>
		<path class="st0" d="M4.6,5.2c0-0.3,0-0.6,0-0.9c0-0.8,0.7-1.4,1.6-1.4c0.9,0,1.6,0.6,1.6,1.4c0,0.3,0,0.6,0,0.9
			c0.9,0,1.7,0,2.6,0c0-0.3,0-0.6,0-0.9c0-0.8,0.7-1.4,1.6-1.4c0.9,0,1.6,0.6,1.6,1.4c0,0.3,0,0.6,0,0.9c1.1,0,2.1,0,3.2,0
			c0-0.3,0-0.6,0-0.9c0-0.8,0.7-1.4,1.6-1.4c0.9,0,1.6,0.6,1.6,1.4c0,0.3,0,0.6,0,0.9c0.9,0,1.7,0,2.6,0c0-0.1,0-0.2,0-0.3
			c0-1.3,0.5-2,1.6-2c1.1,0,1.6,0.6,1.6,2c0,0.1,0,0.2,0,0.3c0.3,0,0.6,0,0.9,0c1.7,0,2.8,1,2.8,2.4c0,4.2,0,8.4,0,12.5
			c0,0.3,0.1,0.4,0.3,0.5c2.4,1.1,3.7,3.4,3.3,5.8c-0.4,2.4-2.6,4.2-5.2,4.6c-2.7,0.3-4.8-0.5-6.3-2.5c-0.1-0.2-0.3-0.2-0.5-0.2
			c-5.8,0-11.5,0-17.3,0c-1.4,0-2.5-0.8-2.7-2c0-0.2,0-0.3,0-0.5c0-6.1,0-12.2,0-18.3c0-1.4,1.1-2.4,2.8-2.4
			C3.9,5.2,4.2,5.2,4.6,5.2z M23.2,20.9c-0.4,0-0.7,0-1.1,0c-0.5,0-0.7-0.2-0.7-0.6c0-0.8,0-1.7,0-2.5c0-0.4,0.2-0.6,0.7-0.6
			c0.8,0,1.7,0,2.5,0c1.1,0,1.1,0,1.1,1c0,0.6,0,1.2,0,1.8c0.5,0,0.9,0,1.3,0c0.4,0,0.9,0.1,1.3,0.1c0-3.1,0-6.3,0-9.4
			c-8.8,0-17.6,0-26.4,0c0,0.1,0,0.2,0,0.3c0,4.9,0,9.9,0,14.8c0,1,0.6,1.6,1.8,1.6c5.6,0,11.1,0,16.7,0c0.1,0,0.2,0,0.4,0
			C19.9,24.8,20.7,22.7,23.2,20.9z M25.7,6.1c0,0.3,0,0.6,0,0.9c0,0.8-0.7,1.4-1.6,1.4c-0.9,0-1.6-0.6-1.6-1.4c0-0.3,0-0.6,0-0.9
			c-0.9,0-1.8,0-2.6,0c0,0.3,0,0.6,0,0.8c0,0.8-0.7,1.5-1.6,1.5c-0.9,0-1.6-0.6-1.6-1.5c0-0.3,0-0.6,0-0.8c-1.1,0-2.1,0-3.2,0
			c0,0.3,0,0.6,0,0.8c0,0.9-0.7,1.5-1.6,1.5c-0.9,0-1.6-0.6-1.6-1.5c0-0.3,0-0.6,0-0.8c-0.9,0-1.8,0-2.6,0c0,0.3,0,0.5,0,0.8
			c0,0.9-0.7,1.5-1.6,1.5C5.2,8.4,4.6,7.8,4.6,7c0-0.3,0-0.6,0-0.8c-0.4,0-0.7,0-1.1,0c-0.9,0-1.6,0.6-1.6,1.4c0,0.6,0,1.1,0,1.7
			c0,0.2,0,0.4,0,0.6c8.8,0,17.6,0,26.4,0c0-0.8,0-1.6,0-2.4c0-0.7-0.7-1.2-1.4-1.3C26.5,6.1,26.2,6.1,25.7,6.1z M26.8,20.9
			c-2.9,0-5.3,2.1-5.3,4.6c0,2.6,2.4,4.7,5.3,4.7c2.9,0,5.3-2.1,5.3-4.6C32.1,23,29.7,20.9,26.8,20.9z M22.6,18.2c0,0.6,0,1.2,0,1.8
			c0.7,0,1.4,0,2.1,0c0-0.6,0-1.2,0-1.8C23.9,18.2,23.3,18.2,22.6,18.2z M23.6,5.6c0,0.4,0,0.9,0,1.3c0,0.3,0.2,0.5,0.5,0.5
			c0.3,0,0.5-0.2,0.5-0.5c0-0.9,0-1.8,0-2.6c0-0.3-0.2-0.5-0.5-0.5c-0.3,0-0.5,0.2-0.5,0.5C23.6,4.8,23.6,5.2,23.6,5.6z M18.8,5.7
			c0-0.4,0-0.9,0-1.3c0-0.3-0.2-0.5-0.5-0.5c-0.3,0-0.5,0.2-0.5,0.5c0,0.9,0,1.8,0,2.6c0,0.3,0.2,0.5,0.5,0.5c0.3,0,0.5-0.2,0.5-0.5
			C18.9,6.5,18.8,6.1,18.8,5.7z M11.4,5.6c0,0.4,0,0.9,0,1.3c0,0.3,0.2,0.5,0.5,0.5c0.3,0,0.5-0.2,0.5-0.5c0-0.9,0-1.7,0-2.6
			c0-0.3-0.2-0.5-0.5-0.5c-0.3,0-0.5,0.2-0.5,0.5C11.4,4.8,11.4,5.2,11.4,5.6z M6.7,5.7c0-0.4,0-0.9,0-1.3c0-0.3-0.2-0.5-0.5-0.5
			C5.9,3.8,5.6,4,5.6,4.3c0,0.9,0,1.8,0,2.6c0,0.3,0.2,0.5,0.5,0.5c0.3,0,0.5-0.2,0.5-0.5C6.7,6.5,6.7,6.1,6.7,5.7z"/>
		<path class="st0" d="M15.7,24.2c0-0.4,0-0.9,0-1.3c0-0.4,0.2-0.5,0.6-0.5c1,0,2,0,3,0c0.4,0,0.6,0.2,0.6,0.5c0,0.9,0,1.7,0,2.6
			c0,0.4-0.2,0.5-0.6,0.5c-1,0-2,0-3,0c-0.4,0-0.6-0.2-0.6-0.5C15.7,25,15.7,24.6,15.7,24.2z M18.8,25.1c0-0.6,0-1.2,0-1.8
			c-0.7,0-1.4,0-2.1,0c0,0.6,0,1.2,0,1.8C17.4,25.1,18.1,25.1,18.8,25.1z"/>
		<path class="st0" d="M14.1,24.2c0,0.4,0,0.9,0,1.3c0,0.4-0.2,0.6-0.6,0.6c-1,0-2,0-3,0c-0.4,0-0.6-0.2-0.6-0.5c0-0.9,0-1.8,0-2.6
			c0-0.4,0.2-0.5,0.6-0.5c1,0,2,0,3,0c0.4,0,0.6,0.2,0.6,0.5C14.1,23.3,14.1,23.7,14.1,24.2z M10.9,25.1c0.7,0,1.4,0,2.1,0
			c0-0.6,0-1.2,0-1.8c-0.7,0-1.4,0-2.1,0C10.9,23.9,10.9,24.5,10.9,25.1z"/>
		<path class="st0" d="M6.1,26c-0.5,0-1,0-1.5,0C4.2,26,4,25.9,4,25.5c0-0.9,0-1.7,0-2.6c0-0.4,0.2-0.5,0.6-0.5c1,0,2,0,3,0
			c0.4,0,0.6,0.2,0.6,0.5c0,0.9,0,1.7,0,2.6c0,0.4-0.2,0.5-0.6,0.5C7.1,26,6.6,26,6.1,26z M7.2,23.3c-0.7,0-1.4,0-2.1,0
			c0,0.6,0,1.2,0,1.8c0.7,0,1.4,0,2.1,0C7.2,24.5,7.2,23.9,7.2,23.3z"/>
		<path class="st0" d="M8.3,14c0,0.4,0,0.9,0,1.3c0,0.4-0.2,0.5-0.6,0.5c-1,0-2,0-3,0c-0.4,0-0.6-0.2-0.6-0.5c0-0.9,0-1.8,0-2.6
			c0-0.4,0.2-0.5,0.6-0.5c1,0,2,0,3,0c0.4,0,0.6,0.2,0.6,0.5C8.3,13.1,8.3,13.6,8.3,14z M7.2,14.9c0-0.6,0-1.2,0-1.8
			c-0.7,0-1.4,0-2.1,0c0,0.6,0,1.2,0,1.8C5.8,14.9,6.5,14.9,7.2,14.9z"/>
		<path class="st0" d="M9.9,14c0-0.4,0-0.8,0-1.3c0-0.4,0.2-0.5,0.6-0.5c1,0,2,0,3,0c0.4,0,0.6,0.2,0.6,0.5c0,0.9,0,1.7,0,2.6
			c0,0.4-0.2,0.5-0.6,0.5c-1,0-2,0-3,0c-0.4,0-0.6-0.2-0.6-0.5C9.9,14.9,9.9,14.4,9.9,14z M13,13.1c-0.7,0-1.4,0-2.1,0
			c0,0.6,0,1.2,0,1.8c0.7,0,1.4,0,2.1,0C13,14.3,13,13.7,13,13.1z"/>
		<path class="st0" d="M17.8,12.1c0.5,0,1,0,1.5,0c0.5,0,0.7,0.2,0.7,0.6c0,0.9,0,1.7,0,2.6c0,0.4-0.2,0.5-0.6,0.5c-1,0-2,0-3,0
			c-0.4,0-0.6-0.2-0.6-0.6c0-0.9,0-1.7,0-2.6c0-0.4,0.2-0.5,0.6-0.5C16.8,12.1,17.3,12.1,17.8,12.1z M18.8,13.1c-0.7,0-1.4,0-2.1,0
			c0,0.6,0,1.2,0,1.8c0.7,0,1.4,0,2.1,0C18.8,14.3,18.8,13.7,18.8,13.1z"/>
		<path class="st0" d="M23.6,12.1c0.5,0,1,0,1.5,0c0.5,0,0.7,0.2,0.7,0.6c0,0.9,0,1.7,0,2.6c0,0.4-0.2,0.5-0.6,0.5c-1,0-2,0-3,0
			c-0.4,0-0.6-0.2-0.6-0.6c0-0.9,0-1.7,0-2.6c0-0.4,0.2-0.5,0.6-0.5C22.6,12.1,23.1,12.1,23.6,12.1z M22.6,13.1c0,0.6,0,1.2,0,1.8
			c0.7,0,1.4,0,2.1,0c0-0.6,0-1.2,0-1.8C23.9,13.1,23.3,13.1,22.6,13.1z"/>
		<path class="st0" d="M17.8,20.9c-0.5,0-1,0-1.5,0c-0.4,0-0.6-0.2-0.6-0.5c0-0.9,0-1.7,0-2.6c0-0.4,0.2-0.6,0.6-0.6c1,0,2,0,3,0
			c0.4,0,0.6,0.2,0.6,0.5c0,0.9,0,1.7,0,2.6c0,0.4-0.2,0.6-0.7,0.6C18.8,20.9,18.3,20.9,17.8,20.9z M16.8,18.2c0,0.6,0,1.2,0,1.8
			c0.7,0,1.4,0,2.1,0c0-0.6,0-1.2,0-1.8C18.1,18.2,17.5,18.2,16.8,18.2z"/>
		<path class="st0" d="M12,17.2c0.5,0,1,0,1.5,0c0.4,0,0.6,0.2,0.6,0.5c0,0.9,0,1.7,0,2.6c0,0.4-0.2,0.6-0.6,0.6c-1,0-2,0-3,0
			c-0.4,0-0.6-0.2-0.6-0.5c0-0.9,0-1.7,0-2.6c0-0.4,0.2-0.5,0.6-0.6C11,17.2,11.5,17.2,12,17.2z M13,18.2c-0.7,0-1.4,0-2.1,0
			c0,0.6,0,1.2,0,1.8c0.7,0,1.4,0,2.1,0C13,19.4,13,18.8,13,18.2z"/>
		<path class="st0" d="M8.3,19.1c0,0.4,0,0.8,0,1.3c0,0.4-0.2,0.5-0.6,0.6c-1,0-2,0-3,0c-0.4,0-0.6-0.2-0.6-0.5c0-0.9,0-1.7,0-2.6
			c0-0.4,0.2-0.5,0.6-0.5c1,0,2,0,3,0c0.4,0,0.6,0.2,0.6,0.5C8.3,18.2,8.3,18.7,8.3,19.1z M5.1,18.2c0,0.6,0,1.2,0,1.8
			c0.7,0,1.4,0,2.1,0c0-0.6,0-1.2,0-1.8C6.5,18.2,5.8,18.2,5.1,18.2z"/>
		<path class="st0" d="M24.5,27.8c-0.2-0.2-0.4-0.5-0.7-0.7c0.6-0.4,1.1-0.8,1.7-1.2c0.1-0.1,0.1-0.2,0.2-0.3
			c0.1-0.2,0.2-0.4,0.4-0.6c0.1-0.1,0.2-0.2,0.2-0.3c0-0.9,0-1.8,0-2.7c0.3,0,0.7,0,1,0c0,0.1,0,0.2,0,0.3c0,0.8,0,1.6,0,2.4
			c0,0.1,0.1,0.3,0.2,0.4c0.3,0.3,0.4,0.7,0.2,1.1c-0.2,0.4-0.7,0.6-1.2,0.5c-0.1,0-0.3,0-0.4,0.1C25.6,27,25.1,27.4,24.5,27.8z"/>
	</g>
</g>
</svg>
