<?xml version="1.0" encoding="utf-8"?>
<!-- Generator: Adobe Illustrator 26.3.1, SVG Export Plug-In . SVG Version: 6.00 Build 0)  -->
<svg version="1.1" id="圖層_1" xmlns="http://www.w3.org/2000/svg" xmlns:xlink="http://www.w3.org/1999/xlink" x="0px" y="0px"
	 viewBox="0 0 34 34" style="enable-background:new 0 0 34 34;" xml:space="preserve">
<style type="text/css">
	.st0{fill:#985C20;}
</style>
<g id="uqGpJl_00000032610322454754912840000018129311281573948036_">
	<g>
		<path class="st0" d="M33.2,30.3C33.1,30.3,33.1,30.4,33.2,30.3c-0.3,0.8-0.8,1.1-1.5,1.1c-2.7,0-5.3,0-8,0c-0.4,0-0.6-0.2-0.6-0.5
			c0-0.3,0.2-0.5,0.6-0.5c2.6,0,5.2,0,7.8,0c0.7,0,0.8-0.1,0.8-0.8c0-6.3,0-12.6,0-18.9c0-0.6-0.1-0.7-0.7-0.7c-9.6,0-19.3,0-28.9,0
			c-0.6,0-0.7,0.1-0.7,0.8c0,6.3,0,12.6,0,18.9c0,0.7,0.1,0.8,0.8,0.8c6.2,0,12.5,0,18.7,0c0.1,0,0.3,0,0.4,0
			c0.2,0.1,0.4,0.2,0.3,0.5c0,0.2-0.2,0.4-0.4,0.4c-0.1,0-0.2,0-0.3,0c-6.3,0-12.5,0-18.8,0c-1.1,0-1.7-0.8-1.7-1.7
			c0-6.3,0-12.7,0-19c0-1.1,0.6-1.7,1.6-1.6c0.7,0,1.3-0.1,2-0.4C8.4,7,12.3,5.3,16.2,3.6c0.2-0.1,0.3-0.2,0.3-0.5
			c0-0.4,0.2-0.6,0.5-0.6c0.3,0,0.5,0.2,0.5,0.6c0,0.3,0.1,0.4,0.3,0.5c4.2,1.8,8.3,3.6,12.5,5.5c0.2,0.1,0.4,0.1,0.5,0.1
			c0.3,0,0.6,0,0.9,0c0.7,0,1.1,0.4,1.3,1c0,0,0,0.1,0.1,0.1C33.2,16.9,33.2,23.6,33.2,30.3z M6.1,9C6.1,9.1,6.1,9.1,6.1,9
			c7.3,0,14.6,0,21.9,0c0,0,0,0,0,0C24.5,7.5,21,6,17.6,4.5c-0.2,0.2-0.4,0.4-0.6,0.4c-0.2,0-0.4-0.2-0.7-0.4C13,6,9.5,7.5,6.1,9z"
			/>
		<path class="st0" d="M4.1,12.3c0,5.3,0,10.6,0,15.9c8.6,0,17.2,0,25.8,0c0-5.3,0-10.5,0-15.9c-0.1,0-0.3,0-0.4,0
			c-6.6,0-13.1,0-19.7,0c-0.1,0-0.3,0-0.4,0c-0.3,0-0.4-0.2-0.4-0.4c0-0.2,0.1-0.4,0.4-0.5c0.1,0,0.2,0,0.3,0c6.7,0,13.3,0,20,0
			c0.8,0,1.2,0.3,1.2,1.2c0,5.1,0,10.3,0,15.4c0,0.8-0.3,1.2-1.2,1.2c-8.5,0-16.9,0-25.4,0c-0.8,0-1.2-0.3-1.2-1.2
			c0-5.2,0-10.3,0-15.5c0-0.8,0.4-1.2,1.2-1.2c1,0,2.1,0,3.1,0c0.1,0,0.2,0,0.3,0c0.2,0.1,0.4,0.2,0.4,0.5c0,0.2-0.1,0.4-0.4,0.4
			c-0.2,0-0.4,0-0.6,0c-0.9,0-1.8,0-2.6,0C4.3,12.3,4.2,12.3,4.1,12.3z"/>
		<path class="st0" d="M17,17.3c-2.8,0-5.7,0-8.5,0c-0.5,0-0.7-0.1-0.7-0.5c0-0.3,0.2-0.5,0.7-0.5c5.7,0,11.3,0,17,0
			c0.5,0,0.7,0.1,0.7,0.5c0,0.3-0.2,0.5-0.7,0.5C22.6,17.3,19.8,17.3,17,17.3z"/>
		<path class="st0" d="M20,23.8c0,1.7-1.4,3-3.1,3c-1.7,0-3-1.4-3-3.1c0-1.7,1.4-3,3.1-3C18.7,20.8,20.1,22.1,20,23.8z M19.1,23.8
			c0-1.2-0.9-2.1-2.1-2.1c-1.2,0-2.1,0.9-2.1,2.1c0,1.2,0.9,2.1,2.1,2.1C18.2,25.9,19.1,25,19.1,23.8z"/>
		<path class="st0" d="M17,15.1c-2,0-3.9,0-5.9,0c-0.1,0-0.3,0-0.4,0c-0.2-0.1-0.4-0.2-0.3-0.5c0-0.2,0.1-0.4,0.4-0.4
			c0.1,0,0.2,0,0.3,0c3.9,0,7.9,0,11.8,0c0.5,0,0.7,0.2,0.7,0.5c0,0.3-0.2,0.5-0.7,0.5C20.9,15.1,19,15.1,17,15.1z"/>
		<path class="st0" d="M17,19.4c-1.2,0-2.3,0-3.5,0c-0.1,0-0.2,0-0.3,0c-0.2-0.1-0.4-0.2-0.3-0.5c0-0.2,0.2-0.3,0.3-0.4
			c0.1-0.1,0.2,0,0.3,0c2.3,0,4.6,0,6.9,0c0.5,0,0.7,0.1,0.7,0.5c0,0.3-0.2,0.5-0.7,0.5C19.3,19.4,18.1,19.4,17,19.4z"/>
		<path class="st0" d="M9.5,24.8c-0.6,0-1.1,0-1.7,0c-0.4,0-0.7-0.2-0.7-0.5c0-0.3,0.2-0.5,0.7-0.5c1.1,0,2.3,0,3.4,0
			c0.4,0,0.6,0.2,0.6,0.5c0,0.3-0.2,0.5-0.6,0.5C10.6,24.8,10,24.8,9.5,24.8z"/>
		<path class="st0" d="M24.5,24.8c-0.6,0-1.2,0-1.8,0c-0.4,0-0.6-0.2-0.6-0.5c0-0.3,0.2-0.5,0.6-0.5c1.2,0,2.4,0,3.5,0
			c0.4,0,0.6,0.2,0.6,0.5c0,0.3-0.2,0.5-0.6,0.5C25.7,24.8,25.1,24.8,24.5,24.8z"/>
	</g>
</g>
</svg>
