<?xml version="1.0" encoding="utf-8"?>
<!-- Generator: Adobe Illustrator 26.3.1, SVG Export Plug-In . SVG Version: 6.00 Build 0)  -->
<svg version="1.1" id="圖層_1" xmlns="http://www.w3.org/2000/svg" xmlns:xlink="http://www.w3.org/1999/xlink" x="0px" y="0px"
	 viewBox="0 0 34 34" style="enable-background:new 0 0 34 34;" xml:space="preserve">
<style type="text/css">
	.st0{fill:#985C20;}
</style>
<g id="Gzxwym_00000147908881106866024290000011212440028148830137_">
	<g>
		<path class="st0" d="M30.6,26.3c0,0.2-0.1,0.4-0.1,0.5c-0.5,1.6-1.8,2.6-3.5,2.7c-0.1,0-0.2,0-0.2,0c-6.5,0-13,0-19.5,0
			c-1.8,0-3.2-1-3.7-2.7c-0.3-1-0.1-1.9,0.4-2.8c1.4-2.5,2.9-5.1,4.3-7.6c1.8-3.3,3.7-6.5,5.5-9.8c0.6-1,1.4-1.7,2.5-1.9
			c1.7-0.4,3.2,0.4,4.1,1.9c1.1,1.9,2.2,3.9,3.3,5.8c2.2,3.8,4.3,7.7,6.4,11.5c0.3,0.5,0.4,1,0.6,1.5C30.6,25.6,30.6,25.9,30.6,26.3
			z M17,27.2c2.2,0,4.4,0,6.6,0c1.1,0,2.2,0,3.3,0c0.7,0,1.2-0.4,1.4-1c0.1-0.4,0-0.8-0.2-1.2c-3.2-5.8-6.5-11.5-9.7-17.3
			c-0.3-0.6-0.8-0.9-1.4-0.9c-0.6,0-1.1,0.3-1.4,0.9c-2.4,4.3-4.8,8.5-7.2,12.8c-0.9,1.5-1.7,3.1-2.6,4.6c-0.3,0.6-0.3,1.1,0.1,1.6
			c0.3,0.4,0.7,0.6,1.3,0.6C10.5,27.2,13.7,27.2,17,27.2z"/>
		<path class="st0" d="M18.1,15.9c0,1.2,0,2.3,0,3.5c0,0.5-0.3,0.9-0.8,1c-0.5,0.1-1,0-1.2-0.4c-0.1-0.2-0.2-0.4-0.2-0.7
			c0-2.3,0-4.6,0-6.9c0-0.6,0.5-1.1,1.1-1.1c0.6,0,1.1,0.5,1.1,1.1C18.1,13.6,18.1,14.7,18.1,15.9z"/>
		<path class="st0" d="M18.1,23.8c0,0.6-0.5,1.1-1.1,1.1c-0.6,0-1.1-0.5-1.1-1.1c0-0.6,0.5-1.1,1.1-1.1
			C17.6,22.7,18.1,23.2,18.1,23.8z"/>
	</g>
</g>
</svg>
