<?xml version="1.0" encoding="utf-8"?>
<!-- Generator: Adobe Illustrator 26.3.1, SVG Export Plug-In . SVG Version: 6.00 Build 0)  -->
<svg version="1.1" id="圖層_1" xmlns="http://www.w3.org/2000/svg" xmlns:xlink="http://www.w3.org/1999/xlink" x="0px" y="0px"
	 viewBox="0 0 65 65" style="enable-background:new 0 0 65 65;" xml:space="preserve">
<style type="text/css">
	.st0{fill:#FFFFFF;}
	.st1{fill:#BB2D1D;}
</style>
<g>
	<g>
		<path class="st0" d="M38.6,44c0.7,0,1.3,0.1,1.9,0.5c0.6,0.5,0.8,1.1,0.9,1.9c0,0.3,0,0.6,0.1,0.9c0.3-0.2,0.5-0.4,0.6-0.7
			c0.1-0.4,0.1-0.7,0-1.1l-3.3-3.3c-0.5-0.1-1-0.2-1.5-0.2c-0.3,0-0.6-0.1-0.9-0.3c-1-0.7-1.9-1.3-2.9-2c-0.6-0.4-1.2-0.7-2-0.8
			c-0.9-0.1-1.8-0.1-2.6-0.2c-1.5-0.1-2.9,0.2-4.2,1c-1.1,0.6-2.1,1.3-2.9,2.3c-0.2,0.3-0.6,0.5-0.9,0.6c-0.4,0.1-0.8,0.2-1.1,0.4
			c-0.4,0.1-0.6,0.4-0.7,0.8c0,0.3-0.1,0.6-0.1,0.8c-0.1,0.5-0.1,0.9-0.1,1.4c0,0.6,0.3,0.8,0.8,0.8c0.2,0,0.4,0,0.7,0
			c0.4,0,0.7,0,1.1,0c0-0.2,0-0.4,0.1-0.6c0.2-1.7,1.7-2.8,3.4-2.2c1.1,0.3,1.6,1.2,1.9,2.2c0.1,0.3,0.1,0.6,0.1,0.8
			c3.1,0,6.2,0,9.2,0c0.1-0.3,0.1-0.6,0.2-0.9C36.5,45,37.2,44.1,38.6,44z"/>
		<path class="st0" d="M21.6,35.5c0.6,0,1.1-0.3,1.3-1c0-0.1,0.1-0.3,0.1-0.4c0.2-0.4,0.3-0.9,0.6-1.3c0.6-1.1,1.6-1.6,2.8-1.6
			c0.6,0,1.2,0.2,1.8,0.5c0.1,0,0.1,0.1,0.2,0.1L27.6,31c-0.5-0.3-1.3-0.5-2.2-0.7c-0.4-1-1-1.8-2-2.2c0.1-0.1,0.4-0.3,0.5-0.4
			c0-0.1,0.1-0.2,0.1-0.4l-2-2c0,0,0,0,0,0c-0.1,0.1-0.1,0.5,0,0.7c0.1,0.2,0.3,0.1,0.4,0c0.1,0.1,0.2,0.2,0.2,0.3
			c-0.2,0.1-0.4,0.2-0.6,0.2c-0.2-0.2-0.3-0.4-0.5-0.6c0,0,0-0.1,0-0.1c0-0.4-0.3-0.6-0.6-0.8c-0.2-0.1-0.3,0-0.4,0.1
			c-0.2,0.3-0.2,0.7,0,1c0.1,0.1,0.2,0.2,0.4,0.1c0.1,0,0.2-0.1,0.3-0.1c0.1,0.2,0.3,0.4,0.4,0.6c-0.3,0.2-0.5,0.4-0.9,0.5
			c-0.3,0-0.4,0.3-0.2,0.5c0.1,0.1,0.2,0.1,0.3,0.1c0.3,0,0.5,0,0.7,0.3c0.1,0.2,0.2,0.5,0.3,0.7c0.2,1.2,0.2,2.5,0,3.7
			c-0.1,0.4-0.2,0.8-0.4,1.3c-0.1,0.2-0.2,0.3-0.4,0.2c-0.3,0-0.6,0-0.9,0c-0.3,0-0.4-0.1-0.4-0.3c-0.3-0.7-0.4-1.4-0.5-2.1
			c-0.1-0.3-0.1-0.7,0.1-1c0.2-0.4,0.1-0.8-0.1-1.2c-0.1-0.3-0.3-0.4-0.6-0.4c-0.2,0-0.4,0-0.5,0c-0.7-0.1-1.3-0.2-2-0.3
			c-0.4-0.1-0.8-0.2-1.2-0.1c-0.4,0.1-0.8,0.1-1.2,0.1c-0.5,0-1,0-1.4-0.2c-0.2-0.1-0.4,0-0.5,0.3c-0.1,0-0.2,0-0.3,0
			c-0.3,0-0.5,0-0.8,0c-0.1,0-0.2,0.1-0.3,0.1c0.1,0.1,0.1,0.2,0.2,0.2c0.2,0.1,0.3,0.2,0.5,0.3c0.1,0,0.1,0.1,0.2,0.2
			c0.1,0.1,0,0.3,0.1,0.5c0.3,0.4,0.3,0.5-0.1,0.8c-0.5,0.5-0.9,1-1.1,1.7c0,0.1-0.1,0.2-0.2,0.3c0,0,0,0-0.1,0c0,0.2,0,0.4,0.1,0.7
			c0.1-0.1,0.1-0.1,0.1-0.1c0.3-0.3,0.5-0.6,0.8-1c0.9-1.1,2.2-1.5,3.5-1c1.5,0.6,2.2,1.9,1.9,3.4c0,0.2-0.1,0.4-0.2,0.6
			c0.1,0,0.1,0,0.2,0c1,0,1.9,0,2.9,0C20.2,35.6,20.9,35.5,21.6,35.5z"/>
		<path class="st0" d="M44.4,47.8l-1.5-1.5c0,0.2,0,0.5-0.1,0.7c-0.2,1.2-0.9,2.1-2.2,2.3c-0.8,0.2-1.6,0.3-2.4,0.4
			c-0.3,0.1-0.7,0.1-1,0.2c-0.2,0.1-0.3,0.2-0.3,0.4c0,0.1,0,0.2,0.2,0.2c0.2,0,0.4,0,0.5,0c2.6,0,5.3,0,7.9,0c0.5,0,1.1,0,1.6,0
			l-1.4-1.4C45.1,48.9,44.6,48.4,44.4,47.8z"/>
		<path class="st0" d="M51.5,20.6c-0.6-2.3-1.4-4.5-2.2-6.7c0-0.1-0.1-0.1-0.2-0.1c-1,0-1.9,0-2.9,0c-2.7,0-5.4,0-8.2,0
			c-0.1,0-0.2,0-0.2,0.1c-0.7,2.1-1.4,4.2-1.9,6.4c-0.2,1.2-0.5,2.3-0.7,3.5c-0.2,1.2-0.1,2.3,0.4,3.4c0.4,0.8,0.9,1.5,1.5,2.1
			c0.9,0.9,1.9,1.6,2.9,2.3c0.7,0.5,1.4,1,2.1,1.5c0.4,0.3,0.6,0.7,0.7,1.2c0.1,0.5,0,0.9,0,1.4c0,1,0,2,0,2.9c0,0.3,0,0.7,0,1
			l1.2,1.2c0-2.8,0.1-5.7,0.1-6c0-0.8,0.3-1.4,1-1.9c0.2-0.2,0.5-0.3,0.8-0.5c0.6-0.3,1.1-0.6,1.7-1c1.4-1,2.7-2.1,3.7-3.5
			c0.4-0.5,0.7-1,0.8-1.6c0.1-0.5,0.1-1,0.1-1.5C52.1,23.3,51.8,21.9,51.5,20.6z"/>
		<path class="st0" d="M24,44.6c-1.2,0-2.1,0.9-2.1,2.1c0,1.2,0.9,2.1,2.1,2.1c1.2,0,2.1-0.9,2.1-2.1C26.1,45.5,25.2,44.6,24,44.6z"
			/>
		<path class="st0" d="M38.8,48.8c1.2,0,2.1-0.9,2.1-2.1c0-1.1-0.9-2.1-2.1-2.1c-1.2,0-2.1,0.9-2.1,2C36.7,47.8,37.6,48.7,38.8,48.8
			z"/>
		<path class="st0" d="M26.3,32c-1.3,0-2.5,1.1-2.5,2.4c0,1.4,1.1,2.6,2.5,2.6c1.4,0,2.5-1.1,2.5-2.5C28.8,33.2,27.7,32,26.3,32z
			 M26.3,36.2c-0.9,0-1.7-0.7-1.7-1.6c0-0.9,0.7-1.7,1.7-1.7c0.9,0,1.7,0.7,1.7,1.7C28,35.5,27.3,36.2,26.3,36.2z"/>
		<path class="st0" d="M13.4,32c-1.4,0-2.5,1.1-2.5,2.5c0,1.4,1.1,2.5,2.5,2.5c1.4,0,2.5-1.1,2.5-2.5C15.9,33.2,14.8,32,13.4,32z
			 M13.4,36.2c-0.9,0-1.7-0.7-1.7-1.7c0-0.9,0.7-1.7,1.7-1.7c0.9,0,1.7,0.7,1.7,1.7C15.1,35.5,14.3,36.2,13.4,36.2z"/>
	</g>
	<path class="st1" d="M55.3,9.7c-6.1-6.1-14.2-9.4-22.8-9.4c-8.6,0-16.7,3.4-22.8,9.4c-6.1,6.1-9.4,14.2-9.4,22.8
		c0,8.6,3.4,16.7,9.4,22.8c6.1,6.1,14.2,9.4,22.8,9.4c8.6,0,16.7-3.4,22.8-9.4c6.1-6.1,9.4-14.2,9.4-22.8
		C64.7,23.9,61.4,15.8,55.3,9.7z M32.5,59.9c-15.1,0-27.4-12.3-27.4-27.4c0-6.7,2.4-12.8,6.4-17.6l10.4,10.4l2,2l3.7,3.7l0.8,0.8
		l10.3,10.3l3.3,3.3l0.9,0.9l1.5,1.5l1.4,1.4l1.4,1.4l3,3C45.3,57.5,39.2,59.9,32.5,59.9z M53.5,50.1l-9.4-9.4l-1.2-1.2l-28-28
		c4.8-4,10.9-6.4,17.6-6.4c15.1,0,27.4,12.3,27.4,27.4C59.9,39.2,57.5,45.3,53.5,50.1z"/>
</g>
</svg>
